<?xml version="1.0" encoding="UTF-8" standalone="no"?>
<!-- Created with Inkscape (http://www.inkscape.org/) -->

<svg
   width="282.13574mm"
   height="9.4965782mm"
   viewBox="0 0 282.13574 9.4965782"
   version="1.1"
   id="svg1"
   xml:space="preserve"
   xmlns="http://www.w3.org/2000/svg"
   xmlns:svg="http://www.w3.org/2000/svg"><defs
     id="defs1" /><g
     id="layer1"
     transform="translate(-283.89793,-420.15834)"><path
       id="path18-3"
       style="fill:#13b9ce;fill-opacity:1;stroke:none;stroke-width:0.129576;stroke-linecap:round;stroke-dasharray:none;stroke-opacity:1;paint-order:markers stroke fill"
       d="m 285.3676,420.15833 -1.46968,1.46968 v 8.0269 h 70.5342 70.53368 70.5342 70.53367 v -8.0269 l -1.46967,-1.46968 -1.46916,1.46968 -1.46968,-1.46968 -1.46916,1.46968 -1.46968,-1.46968 -1.46968,1.46968 -1.46916,-1.46968 -1.46968,1.46968 -1.46916,-1.46968 -1.46968,1.46968 -1.46916,-1.46968 -1.46967,1.46968 -1.46968,-1.46968 -1.46916,1.46968 -1.46968,-1.46968 -1.46916,1.46968 -1.46968,-1.46968 -1.46916,1.46968 -1.46968,-1.46968 -1.46968,1.46968 -1.46916,-1.46968 -1.46967,1.46968 -1.46917,-1.46968 -1.46967,1.46968 -1.46916,-1.46968 -1.46968,1.46968 -1.46968,-1.46968 -1.46916,1.46968 -1.46968,-1.46968 -1.46916,1.46968 -1.46968,-1.46968 -1.46916,1.46968 -1.46968,-1.46968 -1.46967,1.46968 -1.46916,-1.46968 -1.46917,1.46968 -1.46967,-1.46968 -1.46968,1.46968 -1.46916,-1.46968 -1.46968,1.46968 -1.46968,-1.46968 -1.46916,1.46968 -1.46968,-1.46968 -1.46916,1.46968 -1.46968,-1.46968 -1.46916,1.46968 -1.46967,-1.46968 -1.46916,1.46968 -1.46968,-1.46968 -1.46968,1.46968 -1.46916,-1.46968 -1.46968,1.46968 -1.46968,-1.46968 -1.46916,1.46968 -1.46916,-1.46968 -1.46968,1.46968 -1.46967,-1.46968 -1.46916,1.46968 -1.46968,-1.46968 -1.46916,1.46968 -1.46968,-1.46968 -1.46916,1.46968 -1.46968,-1.46968 -1.46968,1.46968 -1.46916,-1.46968 -1.46968,1.46968 -1.46916,-1.46968 -1.46968,1.46968 -1.46967,-1.46968 -1.46916,1.46968 -1.46968,-1.46968 -1.46916,1.46968 -1.46968,-1.46968 -1.46916,1.46968 -1.46968,-1.46968 -1.46968,1.46968 -1.46916,-1.46968 -1.46968,1.46968 -1.46916,-1.46968 -1.46967,1.46968 -1.46917,-1.46968 -1.46967,1.46968 -1.46968,-1.46968 -1.46916,1.46968 -1.46968,-1.46968 -1.46916,1.46968 -1.46968,-1.46968 -1.46916,1.46968 -1.46968,-1.46968 -1.46967,1.46968 -1.46917,-1.46968 -1.46967,1.46968 -1.46916,-1.46968 -1.46968,1.46968 -1.46916,-1.46968 -1.46968,1.46968 -1.46968,-1.46968 -1.46916,1.46968 -1.46968,-1.46968 -1.46916,1.46968 -1.46968,-1.46968 -1.46967,1.46968 -1.46916,-1.46968 -1.46968,1.46968 -1.46916,-1.46968 -1.46968,1.46968 -1.46916,-1.46968 -1.46968,1.46968 -1.46968,-1.46968 -1.46916,1.46968 -1.46968,-1.46968 -1.46916,1.46968 -1.46967,-1.46968 -1.46917,1.46968 -1.46967,-1.46968 -1.46968,1.46968 -1.46916,-1.46968 -1.46968,1.46968 -1.46916,-1.46968 -1.46968,1.46968 -1.46916,-1.46968 -1.46968,1.46968 -1.46968,-1.46968 -1.46916,1.46968 -1.46967,-1.46968 -1.46916,1.46968 -1.46968,-1.46968 -1.46916,1.46968 -1.46968,-1.46968 -1.46968,1.46968 -1.46916,-1.46968 -1.46916,1.46968 -1.46968,-1.46968 -1.46968,1.46968 -1.46916,-1.46968 -1.46968,1.46968 -1.46967,-1.46968 -1.46916,1.46968 -1.46968,-1.46968 -1.46916,1.46968 -1.46968,-1.46968 -1.46916,1.46968 -1.46968,-1.46968 -1.46916,1.46968 -1.46968,-1.46968 -1.46968,1.46968 -1.46916,-1.46968 -1.46967,1.46968 -1.46968,-1.46968 -1.46916,1.46968 -1.46916,-1.46968 -1.46968,1.46968 -1.46968,-1.46968 -1.46916,1.46968 -1.46968,-1.46968 -1.46916,1.46968 -1.46968,-1.46968 -1.46916,1.46968 -1.46968,-1.46968 -1.46967,1.46968 -1.46916,-1.46968 -1.46968,1.46968 -1.46916,-1.46968 -1.46968,1.46968 -1.46968,-1.46968 -1.46916,1.46968 -1.46968,-1.46968 -1.46916,1.46968 -1.46968,-1.46968 -1.46916,1.46968 -1.46967,-1.46968 -1.46968,1.46968 -1.46916,-1.46968 -1.46968,1.46968 -1.46916,-1.46968 -1.46968,1.46968 -1.46916,-1.46968 -1.46968,1.46968 -1.46968,-1.46968 -1.46916,1.46968 -1.46967,-1.46968 -1.46917,1.46968 -1.46967,-1.46968 -1.46916,1.46968 -1.46968,-1.46968 -1.46968,1.46968 -1.46916,-1.46968 -1.46968,1.46968 -1.46916,-1.46968 -1.46968,1.46968 z" /></g></svg>
